<?xml version="1.0" standalone="no"?>
<!DOCTYPE svg PUBLIC "-//W3C//DTD SVG 1.1//EN" "http://www.w3.org/Graphics/SVG/1.1/DTD/svg11.dtd" >
<svg xmlns="http://www.w3.org/2000/svg">
<metadata>Generated by IcoMoon</metadata>
<defs>
<font id="bb-icons" horiz-adv-x="1024">
<font-face units-per-em="1024" ascent="960" descent="-64" />
<missing-glyph horiz-adv-x="1024" />
<glyph unicode="&#x20;" horiz-adv-x="512" d="" />
<glyph unicode="&#xe900;" glyph-name="check-square" horiz-adv-x="1076" d="M512 299.858c-12.188 0.031-23.212 4.992-31.187 12.994l-155.94 155.94c-6.925 7.766-11.157 18.064-11.157 29.35 0 24.401 19.781 44.183 44.183 44.183 11.286 0 21.584-4.232 29.394-11.195l-0.044 0.038 124.751-124.751 488.609 488.609c7.766 6.925 18.064 11.157 29.35 11.157 24.401 0 44.183-19.781 44.183-44.183 0-11.286-4.232-21.584-11.195-29.394l0.038 0.044-519.797-519.797c-7.976-8.003-18.999-12.964-31.182-12.995h-0.006zM875.858-64h-727.716c-81.817 0-148.142 66.325-148.142 148.142v0 727.716c0 81.817 66.325 148.142 148.142 148.142v0h571.777c24.401 0 44.183-19.781 44.183-44.183s-19.781-44.183-44.183-44.183h-571.777c-33.014 0-59.777-26.763-59.777-59.777v0-727.716c0-33.014 26.763-59.777 59.777-59.777v0h727.716c33.014 0 59.777 26.763 59.777 59.777v0 363.858c0 24.401 19.781 44.183 44.183 44.183s44.183-19.781 44.183-44.183v0-363.858c0-81.817-66.325-148.142-148.142-148.142v0z" />
<glyph unicode="&#xe901;" glyph-name="close" d="M63.533-64c-35.021 0.088-63.378 28.499-63.378 63.533 0 17.506 7.080 33.357 18.533 44.849l896.932 896.932c11.167 9.958 25.975 16.044 42.204 16.044 35.088 0 63.533-28.445 63.533-63.533 0-16.229-6.085-31.037-16.099-42.267l0.055 0.063-896.934-896.934c-11.469-11.508-27.32-18.642-44.838-18.686h-0.009zM960.467-64c-0.046 0-0.101 0-0.156 0-17.485 0-33.3 7.147-44.684 18.68l-896.941 896.941c-9.958 11.167-16.044 25.975-16.044 42.204 0 35.088 28.445 63.533 63.533 63.533 16.229 0 31.037-6.085 42.267-16.099l-0.063 0.055 896.934-896.934c11.451-11.489 18.531-27.341 18.531-44.847 0-35.034-28.356-63.444-63.369-63.533h-0.008z" />
<glyph unicode="&#xe902;" glyph-name="edit" d="M304.081-64h-259.898c-24.401 0-44.183 19.781-44.183 44.183v0 259.898c0.031 12.188 4.992 23.212 12.994 31.187l675.737 675.737c7.99 7.963 19.014 12.887 31.188 12.887s23.198-4.924 31.189-12.888l259.897-259.897c7.963-7.99 12.887-19.014 12.887-31.188s-4.924-23.198-12.888-31.189l-675.735-675.735c-7.976-8.003-18.999-12.964-31.182-12.995h-0.006zM88.365 24.365h197.523l631.553 631.553-197.523 197.523-631.553-631.553z" />
<glyph unicode="&#xe903;" glyph-name="info" d="M512-64c-282.77 0-512 229.23-512 512s229.23 512 512 512c282.77 0 512-229.23 512-512v0c-0.227-282.678-229.321-511.773-511.978-512h-0.022zM512 892.265c-245.361 0-444.265-198.904-444.265-444.265s198.904-444.265 444.265-444.265c245.361 0 444.265 198.904 444.265 444.265v0c-0.227 245.269-198.995 444.038-444.243 444.265h-0.022zM512 222.879c-18.705 0-33.868 15.163-33.868 33.868v0 191.253c0 18.705 15.163 33.868 33.868 33.868s33.868-15.163 33.868-33.868v0-191.253c0-18.705-15.163-33.868-33.868-33.868v0zM512 557.572c-18.705 0-33.868 15.163-33.868 33.868v0 47.813c0 18.705 15.163 33.868 33.868 33.868s33.868-15.163 33.868-33.868v0-47.813c0-18.705-15.163-33.868-33.868-33.868v0z" />
<glyph unicode="&#xe904;" glyph-name="no-check" horiz-adv-x="1023" d="M875.413-63.48h-727.347c-81.775 0-148.067 66.292-148.067 148.067v0 727.347c-0.004 0.381-0.006 0.831-0.006 1.282 0 40.385 16.94 76.813 44.103 102.565l0.063 0.060c25.732 26.615 61.758 43.139 101.643 43.139 0.796 0 1.59-0.007 2.383-0.020l-0.119 0.002h727.347c2.492 0.149 5.406 0.233 8.34 0.233 38.9 0 74.321-14.896 100.869-39.296l-0.107 0.097c24.412-26.754 39.365-62.506 39.365-101.75 0-3.867-0.145-7.7-0.43-11.494l0.031 0.505v-722.671c0-81.775-66.292-148.067-148.067-148.067v0zM881.648 871.679h-733.581c-0.89 0.054-1.93 0.085-2.977 0.085-15.566 0-29.533-6.846-39.055-17.691l-0.051-0.059c-10.904-9.572-17.749-23.539-17.749-39.106 0-1.047 0.031-2.087 0.092-3.119l-0.007 0.142v-727.347c0-32.997 26.749-59.746 59.746-59.746v0h727.347c32.997 0 59.746 26.749 59.746 59.746v0 727.347c0.2 1.952 0.314 4.217 0.314 6.509 0 15.16-4.995 29.154-13.429 40.425l0.126-0.176c-10.487 8.127-23.829 13.027-38.316 13.027-0.776 0-1.549-0.014-2.318-0.042l0.111 0.003z" />
<glyph unicode="&#xe905;" glyph-name="question" d="M512-64c-282.77 0-512 229.23-512 512s229.23 512 512 512c282.77 0 512-229.23 512-512v0c-0.227-282.678-229.321-511.773-511.978-512h-0.022zM512 892.265c-245.361 0-444.265-198.904-444.265-444.265s198.904-444.265 444.265-444.265c245.361 0 444.265 198.904 444.265 444.265v0c-0.227 245.269-198.995 444.038-444.243 444.265h-0.022zM508.016 366.319c-0.149-0.002-0.326-0.004-0.503-0.004-18.705 0-33.868 15.163-33.868 33.868 0 15.041 9.805 27.793 23.373 32.21l0.24 0.067s119.533 42.633 119.533 111.166c-0.098 60.441-49.118 109.4-109.572 109.4-47.309 0-87.615-29.982-102.954-71.981l-0.243-0.761c-3.993-14.581-17.125-25.119-32.718-25.119-18.705 0-33.868 15.163-33.868 33.868 0 4.907 1.044 9.57 2.921 13.78l-0.086-0.215c24.932 69.723 90.418 118.716 167.347 118.716 97.924 0 177.307-79.383 177.307-177.307 0-0.133 0-0.266 0-0.399v0.021c0-119.533-159.377-173.323-166.549-175.714-3.087-1.011-6.64-1.594-10.329-1.594-0.011 0-0.022 0-0.032 0h0.002zM512 175.066c-18.705 0-33.868 15.163-33.868 33.868v0 47.813c0 18.705 15.163 33.868 33.868 33.868s33.868-15.163 33.868-33.868v0-47.813c0-18.705-15.163-33.868-33.868-33.868v0z" />
<glyph unicode="&#xe906;" glyph-name="search" d="M434.030 91.939c-239.708 0-434.030 194.322-434.030 434.030s194.322 434.030 434.030 434.030c239.708 0 434.030-194.322 434.030-434.030v0c-0.296-239.589-194.441-433.735-434.002-434.030h-0.028zM434.030 871.635c-190.905 0-345.665-154.759-345.665-345.665s154.759-345.665 345.665-345.665c190.905 0 345.665 154.759 345.665 345.665v0c-0.296 190.787-154.879 345.37-345.637 345.665h-0.028zM979.817-64c-0.032 0-0.070 0-0.108 0-12.16 0-23.158 4.97-31.075 12.99l-207.924 207.924c-6.925 7.766-11.157 18.064-11.157 29.35 0 24.401 19.781 44.183 44.183 44.183 11.286 0 21.584-4.232 29.394-11.195l-0.044 0.038 207.919-207.919c7.963-7.99 12.887-19.014 12.887-31.188 0-24.363-19.72-44.121-44.069-44.183h-0.006z" />
<glyph unicode="&#xe907;" glyph-name="settings" horiz-adv-x="1025" d="M512.649 282.092c-91.987 0-166.557 74.57-166.557 166.557s74.57 166.557 166.557 166.557c91.987 0 166.557-74.57 166.557-166.557v0c0-91.987-74.57-166.557-166.557-166.557v0zM512.649 541.661c-51.369 0-93.012-41.643-93.012-93.012s41.643-93.012 93.012-93.012c51.369 0 93.012 41.643 93.012 93.012v0c0 51.369-41.643 93.012-93.012 93.012v0zM516.11-64c-68.094 0-123.295 55.201-123.295 123.295v0c0.022 0.473 0.034 1.028 0.034 1.586 0 7.82-2.441 15.070-6.602 21.029l0.079-0.119c-3.951 5.629-9.401 9.964-15.772 12.465l-0.235 0.081c-4.797 2.496-10.476 3.96-16.496 3.96-2.119 0-4.196-0.181-6.216-0.53l0.216 0.031c-6.967-1.251-13.027-4.486-17.744-9.091l0.007 0.006c-12.013-12.175-26.396-21.979-42.404-28.668l-0.857-0.318c-14.060-6.048-30.426-9.564-47.613-9.564-68.094 0-123.295 55.201-123.295 123.295 0 34.173 13.902 65.098 36.36 87.43l0.006 0.006c6.67 4.719 11.674 11.403 14.202 19.201l0.075 0.266c0.331 1.798 0.521 3.867 0.521 5.98 0 5.203-1.148 10.139-3.205 14.566l0.089-0.214c-5.336 12.461-17.437 21.061-31.563 21.198h-9.102c-68.094 0-123.295 55.201-123.295 123.295s55.201 123.295 123.295 123.295v0c0.473-0.022 1.028-0.034 1.586-0.034 7.82 0 15.070 2.441 21.029 6.602l-0.119-0.079c5.629 3.951 9.964 9.401 12.465 15.772l0.081 0.235c2.443 4.82 3.874 10.508 3.874 16.531 0 1.952-0.15 3.869-0.44 5.74l0.027-0.208c-1.192 7.122-4.436 13.337-9.096 18.181l0.011-0.011c-12.261 11.762-22.188 25.848-29.092 41.563l-0.326 0.833c-6.046 14.058-9.561 30.421-9.561 47.606 0 50.933 30.884 94.653 74.946 113.454l0.805 0.305c13.941 5.884 30.149 9.303 47.155 9.303s33.214-3.419 47.974-9.608l-0.819 0.305c15.662-6.522 29.031-15.589 40.23-26.819l0.003-0.003c5.015-6.494 12.011-11.243 20.074-13.353l0.259-0.058c1.798-0.331 3.867-0.521 5.98-0.521 5.203 0 10.139 1.148 14.566 3.205l-0.214-0.089 8.22 2.596c9.92 6.193 16.425 17.044 16.439 29.416v8.654c0.273 33.913 14.292 64.499 36.752 86.503l0.021 0.020c22.548 21.234 53.012 34.283 86.523 34.283s63.975-13.049 86.587-34.343l-0.064 0.060c22.162-22.138 35.88-52.726 35.907-86.518v-0.005c-0.062-0.818-0.097-1.772-0.097-2.734 0-7.474 2.13-14.451 5.816-20.357l-0.094 0.162c6.352-9.612 17.11-15.865 29.329-15.865 9.448 0 18.023 3.739 24.326 9.819l-0.011-0.010c11.975 12.236 26.37 22.050 42.416 28.676l0.845 0.309c13.941 5.884 30.149 9.303 47.155 9.303s33.214-3.419 47.974-9.608l-0.819 0.305c45.014-19.042 76.023-62.836 76.023-113.873 0-34.102-13.845-64.97-36.22-87.29l-0.003-0.003c-5.804-5.236-9.954-12.204-11.637-20.086l-0.044-0.247c-0.387-1.93-0.608-4.149-0.608-6.419 0-4.872 1.020-9.507 2.857-13.701l-0.086 0.22c1.117-2.491 2.018-5.394 2.561-8.421l0.034-0.231c6.193-9.92 17.044-16.425 29.416-16.439h7.789c68.094 0 123.295-55.201 123.295-123.295s-55.201-123.295-123.295-123.295v0c-0.7 0.045-1.519 0.071-2.343 0.071-7.457 0-14.419-2.12-20.316-5.79l0.163 0.095c-5.551-3.7-9.87-8.853-12.462-14.921l-0.084-0.22c-1.842-4.093-2.915-8.872-2.915-13.902 0-9.407 3.753-17.937 9.843-24.175l-0.007 0.007c12.236-11.975 22.050-26.37 28.676-42.416l0.309-0.845c6.005-14.016 9.497-30.326 9.497-47.452 0-51.073-31.054-94.894-75.311-113.609l-0.809-0.304c-13.937-5.906-30.145-9.338-47.155-9.338s-33.218 3.432-47.969 9.642l0.814-0.304c-15.662 6.522-29.031 15.589-40.23 26.819l-0.003 0.003c-5.236 5.804-12.204 9.954-20.086 11.637l-0.247 0.044c-2.469 0.621-5.303 0.978-8.22 0.978-19.353 0-35.042-15.689-35.042-35.042 0-0.040 0-0.079 0-0.119v0.006-6.489c0-68.094-55.201-123.295-123.295-123.295v0zM354.312 171.343c15.654-0.006 30.526-3.349 43.944-9.358l-0.683 0.273c19.94-7.769 36.418-20.764 48.235-37.316l0.218-0.321c12.254-16.818 19.796-37.761 20.331-60.438l0.002-0.128s0-4.326 0-4.759c0.027-13.716 5.648-26.113 14.703-35.036l0.006-0.006c9.189-8.652 21.603-13.969 35.258-13.969s26.069 5.317 35.284 13.993l-0.026-0.024c8.984 8.978 14.581 21.344 14.709 35.017v7.378c-0.002 0.271-0.004 0.591-0.004 0.912 0 59.971 48.616 108.586 108.586 108.586 29.245 0 55.79-11.561 75.313-30.362l-0.034 0.033c5.215-5.796 11.551-10.47 18.681-13.7l0.354-0.143c5.625-2.394 12.167-3.786 19.035-3.786s13.41 1.392 19.362 3.908l-0.326-0.123c6.236 2.642 11.554 6.295 16.001 10.809l0.006 0.006c4.492 4.47 8.141 9.783 10.69 15.681l0.125 0.325c2.461 5.612 3.894 12.154 3.894 19.030 0 0.002 0 0.003 0 0.005v0c0 0.028 0 0.061 0 0.093 0 6.846-1.433 13.357-4.014 19.25l0.121-0.309c-2.627 6.392-6.284 11.854-10.82 16.444l0.005-0.005c-16.091 15.512-27.485 35.796-31.901 58.571l-0.113 0.697c-1.329 6.373-2.089 13.697-2.089 21.198 0 59.945 48.574 108.544 108.509 108.586h0.004c0.818-0.045 1.775-0.071 2.739-0.071 14.234 0 27.152 5.635 36.645 14.795l-0.016-0.015c10.011 9.133 16.267 22.234 16.267 36.797 0 27.477-22.274 49.751-49.751 49.751-0.548 0-1.094-0.009-1.638-0.026l0.079 0.002h-7.354c-44.245 0.181-82.204 26.902-98.798 65.059l-0.271 0.698c-1.27 3.030-2.186 6.544-2.581 10.215l-0.015 0.168c-3.451 10.113-5.443 21.763-5.443 33.878 0 27.958 10.609 53.439 28.020 72.636l-0.081-0.091c5.796 5.215 10.47 11.551 13.7 18.681l0.143 0.354c2.394 5.625 3.786 12.167 3.786 19.035s-1.392 13.41-3.908 19.362l0.123-0.326c-7.666 18.204-25.358 30.752-45.98 30.752-13.824 0-26.332-5.638-35.348-14.741l-0.004-0.004c-15.527-16.068-35.805-27.456-58.566-31.899l-0.702-0.114c-6.373-1.329-13.697-2.089-21.198-2.089-59.945 0-108.544 48.574-108.586 108.509v0.004c0.045 0.818 0.071 1.775 0.071 2.739 0 14.234-5.635 27.152-14.795 36.645l0.015-0.016c-9.189 8.652-21.603 13.969-35.258 13.969s-26.069-5.317-35.284-13.993l0.026 0.024c-8.984-8.978-14.581-21.344-14.709-35.017v-7.378c0.005-0.392 0.008-0.855 0.008-1.318 0-42.917-24.997-79.995-61.225-97.47l-0.647-0.281c-3.033-1.288-6.55-2.206-10.226-2.583l-0.156-0.013c-11.185-4.281-24.122-6.761-37.639-6.761-28.642 0-54.684 11.134-74.033 29.31l0.057-0.053c-5.215 5.796-11.551 10.47-18.681 13.7l-0.354 0.143c-5.625 2.394-12.167 3.786-19.035 3.786s-13.41-1.392-19.362-3.908l0.326 0.123c-12.147-5.196-21.627-14.676-26.697-26.495l-0.125-0.327c-2.363-5.592-3.737-12.094-3.737-18.917 0-13.729 5.561-26.159 14.553-35.16v0c16.091-15.512 27.485-35.796 31.901-58.571l0.113-0.697c1.117-5.825 1.756-12.524 1.756-19.372 0-15.689-3.354-30.594-9.384-44.039l0.273 0.682c-7.745-19.952-20.746-36.436-37.315-48.235l-0.322-0.218c-16.808-12.278-37.758-19.826-60.446-20.331l-0.121-0.002h-5.191c-13.716-0.027-26.113-5.648-35.036-14.703l-0.006-0.006c-10.011-9.133-16.267-22.234-16.267-36.797 0-27.477 22.274-49.751 49.751-49.751 0.548 0 1.094 0.009 1.638 0.026l-0.079-0.002h7.354c59.322-0.845 107.088-49.132 107.088-108.576 0-28.001-10.599-53.527-28.003-72.784l0.084 0.094c-5.796-5.215-10.47-11.551-13.7-18.681l-0.143-0.354c-2.394-5.625-3.786-12.167-3.786-19.035s1.392-13.41 3.908-19.362l-0.123 0.326c2.664-6.228 6.314-11.542 10.812-16.003l0.003-0.003c4.476-4.483 9.787-8.13 15.68-10.689l0.327-0.127c5.625-2.394 12.167-3.786 19.035-3.786s13.41 1.392 19.362 3.908l-0.326-0.123c6.388 2.638 11.848 6.294 16.446 10.822l-0.006-0.006c19.751 20.803 47.609 33.744 78.489 33.744 0.087 0 0.174 0 0.261 0h-0.013zM832.784 318.864v0z" />
<glyph unicode="&#xe908;" glyph-name="share" horiz-adv-x="930" d="M747.945 596.645c-100.338 0-181.677 81.34-181.677 181.677s81.34 181.677 181.677 181.677c100.338 0 181.677-81.34 181.677-181.677v0c0-100.338-81.34-181.677-181.677-181.677v0zM747.945 879.779c-56.033 0-101.456-45.423-101.456-101.456s45.423-101.456 101.456-101.456c56.033 0 101.456 45.423 101.456 101.456v0c0 56.033-45.423 101.456-101.456 101.456v0zM181.677 266.323c-100.338 0-181.677 81.34-181.677 181.677s81.34 181.677 181.677 181.677c100.338 0 181.677-81.34 181.677-181.677v0c0-100.338-81.34-181.677-181.677-181.677v0zM181.677 549.456c-56.033 0-101.456-45.423-101.456-101.456s45.423-101.456 101.456-101.456c56.033 0 101.456 45.423 101.456 101.456v0c0 56.033-45.423 101.456-101.456 101.456v0zM747.945-64c-100.338 0-181.677 81.34-181.677 181.677s81.34 181.677 181.677 181.677c100.338 0 181.677-81.34 181.677-181.677v0c0-100.338-81.34-181.677-181.677-181.677v0zM747.945 219.134c-56.033 0-101.456-45.423-101.456-101.456s45.423-101.456 101.456-101.456c56.033 0 101.456 45.423 101.456 101.456v0c0 56.033-45.423 101.456-101.456 101.456v0zM626.197 148.822c-7.497 0.050-14.494 2.148-20.471 5.763l0.179-0.101-322.3 188.756c-8.303 7.383-13.507 18.093-13.507 30.019 0 22.152 17.958 40.111 40.111 40.111 4.668 0 9.15-0.797 13.316-2.263l-0.281 0.086 322.3-188.756c11.798-7.126 19.564-19.881 19.564-34.449 0-22.063-17.813-39.965-39.842-40.11h-0.014zM303.897 479.145c-22.043 0.145-39.856 18.047-39.856 40.11 0 14.568 7.767 27.322 19.385 34.348l0.179 0.101 321.829 188.756c5.811 3.456 12.813 5.5 20.291 5.5 22.193 0 40.183-17.991 40.183-40.183 0-14.714-7.908-27.581-19.707-34.582l-0.186-0.102-322.772-188.284c-5.526-3.379-12.174-5.458-19.291-5.661l-0.056-0.001z" />
<glyph unicode="&#xe909;" glyph-name="star" horiz-adv-x="1075" d="M843.265-64c-7.251 0-14.073 1.833-20.029 5.062l0.222-0.11-286.205 148.549-286.205-148.549c-5.481-2.799-11.956-4.439-18.814-4.439-23.245 0-42.089 18.844-42.089 42.089 0 2.266 0.179 4.49 0.524 6.659l-0.031-0.239 54.468 318.886-232.232 225.795c-7.853 7.654-12.724 18.334-12.724 30.153 0 21.096 15.52 38.566 35.765 41.617l0.232 0.029 320.371 47.041 143.103 290.166c7.871 12.76 21.774 21.137 37.632 21.137s29.761-8.377 37.523-20.947l0.109-0.19 143.103-290.166 320.371-47.041c20.477-3.079 35.997-20.55 35.997-41.646 0-11.819-4.871-22.499-12.715-30.144l-0.009-0.009-231.737-225.795 53.973-318.886c0.42-2.233 0.661-4.802 0.661-7.428 0-23.245-18.844-42.089-42.089-42.089-0.058 0-0.116 0-0.174 0h0.009zM132.704 530.692l186.677-181.725c7.722-7.634 12.504-18.227 12.504-29.937 0-2.544-0.226-5.035-0.658-7.455l0.038 0.255-44.070-256.495 230.251 121.81c5.672 3.037 12.407 4.821 19.559 4.821s13.887-1.784 19.786-4.931l-0.227 0.11 230.747-121.315-44.070 256.495c-0.35 2.040-0.551 4.389-0.551 6.786 0 11.919 4.954 22.681 12.916 30.339l0.014 0.013 186.677 181.725-256.495 37.137c-13.939 2.034-25.503 10.651-31.58 22.54l-0.11 0.238-116.859 233.718-115.373-233.718c-6.455-12.49-18.646-21.23-32.991-22.762l-0.185-0.016z" />
<glyph unicode="&#xe90a;" glyph-name="surface1" horiz-adv-x="835" d="M606.378 219.134c-74.606 3.141-144.254 21.255-207.033 51.395l3.177-1.374c-50.695 24.838-109.91 40.826-172.463 44.305l-1.192 0.053c-118.916 0-160.914-35.864-161.386-36.335-7.218-6.442-16.792-10.379-27.285-10.379-5.828 0-11.372 1.214-16.393 3.404l0.265-0.103c-14.157 6.291-23.888 20.155-24.066 36.313v566.29c0.028 11.065 4.532 21.073 11.796 28.312l0.001 0.001c6.135 6.135 63.233 58.986 217.069 58.986 74.606-3.141 144.254-21.255 207.033-51.395l-3.177 1.374c50.695-24.838 109.91-40.826 172.463-44.305l1.192-0.053c118.916 0 160.914 35.864 161.386 36.335 7.218 6.442 16.792 10.379 27.285 10.379 5.828 0 11.372-1.214 16.393-3.404l-0.265 0.103c14.157-6.291 23.888-20.155 24.066-36.313v-566.29c-0.028-11.065-4.532-21.073-11.796-28.312l-0.001-0.001c-6.135-6.135-63.233-58.986-217.069-58.986zM228.866 393.733c74.606-3.141 144.254-21.255 207.033-51.395l-3.177 1.374c50.695-24.826 109.908-40.812 172.457-44.304l1.198-0.053c4.989-0.28 10.826-0.44 16.701-0.44 47.846 0 93.217 10.596 133.894 29.57l-1.95-0.817v479.44c-41.7-13.823-89.703-21.797-139.568-21.797-3.192 0-6.376 0.033-9.552 0.098l0.475-0.008c-74.606 3.141-144.254 21.255-207.033 51.395l3.177-1.374c-50.693 24.85-109.911 40.839-172.469 44.305l-1.187 0.052c-4.989 0.28-10.826 0.44-16.701 0.44-47.846 0-93.217-10.596-133.894-29.57l1.95 0.817v-479.44c41.721 13.822 89.748 21.795 139.637 21.795 3.167 0 6.327-0.032 9.48-0.096l-0.472 0.008zM40.111-64c-22.152 0-40.111 17.958-40.111 40.111v0 330.323c0 22.152 17.958 40.111 40.111 40.111s40.111-17.958 40.111-40.111v0-330.323c0-22.152-17.958-40.111-40.111-40.111v0z" />
<glyph unicode="&#xe90b;" glyph-name="user" horiz-adv-x="920" d="M875.858-64c-24.401 0-44.183 19.781-44.183 44.183v0 103.959c0 90.429-73.307 163.736-163.736 163.736v0h-415.838c-0.208 0.001-0.455 0.002-0.701 0.002-45.012 0-85.755-18.279-115.21-47.819l-0.004-0.004c-29.52-29.737-47.777-70.69-47.821-115.906v-103.968c0-24.401-19.781-44.183-44.183-44.183s-44.183 19.781-44.183 44.183v0 103.959c0 139.232 112.87 252.102 252.102 252.102h415.838c139.232 0 252.102-112.87 252.102-252.102v0-103.959c0-24.401-19.781-44.183-44.183-44.183v0zM460.020 455.797c-139.232 0-252.102 112.87-252.102 252.102s112.87 252.102 252.102 252.102c139.232 0 252.102-112.87 252.102-252.102v0c-0.295-139.113-112.989-251.807-252.074-252.101h-0.028zM460.020 871.635c-90.429 0-163.736-73.307-163.736-163.736s73.307-163.736 163.736-163.736c90.429 0 163.736 73.307 163.736 163.736v0c0 90.429-73.307 163.736-163.736 163.736v0z" />
<glyph unicode="&#xe90c;" glyph-name="user-plus" horiz-adv-x="1232" d="M823.878-64c-24.401 0-44.183 19.781-44.183 44.183v0 103.959c0 90.429-73.307 163.736-163.736 163.736v0h-363.858c-0.208 0.001-0.455 0.002-0.701 0.002-45.012 0-85.755-18.279-115.21-47.819l-0.004-0.004c-29.52-29.737-47.777-70.69-47.821-115.906v-103.968c0-24.401-19.781-44.183-44.183-44.183s-44.183 19.781-44.183 44.183v0 103.959c0 139.232 112.87 252.102 252.102 252.102v0h363.858c139.232 0 252.102-112.87 252.102-252.102v0-103.959c0-24.401-19.781-44.183-44.183-44.183v0zM434.030 455.797c-139.232 0-252.102 112.87-252.102 252.102s112.87 252.102 252.102 252.102c139.232 0 252.102-112.87 252.102-252.102v0c-0.295-139.113-112.989-251.807-252.074-252.101h-0.028zM434.030 871.635c-90.429 0-163.736-73.307-163.736-163.736s73.307-163.736 163.736-163.736c90.429 0 163.736 73.307 163.736 163.736v0c0 90.429-73.307 163.736-163.736 163.736v0zM1031.797 299.858c-24.401 0-44.183 19.781-44.183 44.183v0 311.878c0 24.401 19.781 44.183 44.183 44.183s44.183-19.781 44.183-44.183v0-311.878c0-24.401-19.781-44.183-44.183-44.183v0zM1187.736 455.797h-311.878c-24.401 0-44.183 19.781-44.183 44.183s19.781 44.183 44.183 44.183h311.878c24.401 0 44.183-19.781 44.183-44.183s-19.781-44.183-44.183-44.183v0z" />
<glyph unicode="&#xe90d;" glyph-name="users" horiz-adv-x="1232" d="M875.858-64c-24.401 0-44.183 19.781-44.183 44.183v0 103.959c0 90.429-73.307 163.736-163.736 163.736v0h-415.838c-0.208 0.001-0.455 0.002-0.701 0.002-45.012 0-85.755-18.279-115.21-47.819l-0.004-0.004c-29.52-29.737-47.777-70.69-47.821-115.906v-103.968c0-24.401-19.781-44.183-44.183-44.183s-44.183 19.781-44.183 44.183v0 103.959c0 139.232 112.87 252.102 252.102 252.102v0h415.838c139.232 0 252.102-112.87 252.102-252.102v0-103.959c0-24.401-19.781-44.183-44.183-44.183v0zM460.020 455.797c-139.232 0-252.102 112.87-252.102 252.102s112.87 252.102 252.102 252.102c139.232 0 252.102-112.87 252.102-252.102v0c-0.295-139.113-112.989-251.807-252.074-252.101h-0.028zM460.020 871.635c-90.429 0-163.736-73.307-163.736-163.736s73.307-163.736 163.736-163.736c90.429 0 163.736 73.307 163.736 163.736v0c0 90.429-73.307 163.736-163.736 163.736v0zM1187.736-64c-24.401 0-44.183 19.781-44.183 44.183v0 103.959c-1.211 74.787-52.379 137.294-121.529 155.681l-1.143 0.259c-19.217 5.13-33.14 22.381-33.14 42.883 0 24.475 19.841 44.316 44.316 44.316 3.972 0 7.822-0.523 11.485-1.503l-0.31 0.071c108.663-28.925 187.6-125.948 188.685-241.583l0.001-0.123v-103.959c0-24.401-19.781-44.183-44.183-44.183v0zM823.878 462.035c-24.099 0.393-43.484 20.021-43.484 44.177 0 20.269 13.649 37.351 32.257 42.555l0.311 0.074c71.185 18.826 122.807 82.654 122.807 158.538s-51.622 139.712-121.665 158.28l-1.143 0.258c-19.312 5.036-33.335 22.322-33.335 42.883 0 24.439 19.812 44.251 44.251 44.251 3.878 0 7.639-0.499 11.224-1.436l-0.308 0.068c110.009-28.702 189.889-127.175 189.889-244.305s-79.879-215.603-188.134-243.915l-1.754-0.39z" />
<glyph unicode="&#xe90e;" glyph-name="back" horiz-adv-x="531" d="M484.62-64c-13.389 0.022-25.449 5.694-33.926 14.759l-0.024 0.026-438.075 465.455c-7.911 8.327-12.777 19.612-12.777 32.034s4.866 23.708 12.796 32.054l-0.019-0.020 438.075 465.455c8.53 9.026 20.584 14.644 33.951 14.644 25.78 0 46.678-20.899 46.678-46.678 0-12.413-4.845-23.695-12.748-32.056l0.021 0.022-407.957-433.694 407.957-433.694c7.757-8.293 12.52-19.471 12.52-31.76 0-25.68-20.796-46.503-46.466-46.545h-0.004z" />
<glyph unicode="&#xe90f;" glyph-name="bar-chart" horiz-adv-x="793" d="M743.412-64c-27.159 0-49.175 22.016-49.175 49.175v0 578.531c0 27.159 22.016 49.175 49.175 49.175s49.175-22.016 49.175-49.175v0-578.531c0-27.159-22.016-49.175-49.175-49.175v0zM396.294-64c-27.159 0-49.175 22.016-49.175 49.175v0 925.65c0 27.159 22.016 49.175 49.175 49.175s49.175-22.016 49.175-49.175v0-925.65c0-27.159-22.016-49.175-49.175-49.175v0zM49.175-64c-27.159 0-49.175 22.016-49.175 49.175v0 347.119c0 27.159 22.016 49.175 49.175 49.175s49.175-22.016 49.175-49.175v0-347.119c0-27.159-22.016-49.175-49.175-49.175v0z" />
<glyph unicode="&#xe910;" glyph-name="check" horiz-adv-x="1432" d="M476.411-64c-18.966 0.048-36.12 7.768-48.529 20.219l-404.425 404.425c-14.424 12.667-23.479 31.147-23.479 51.742 0 37.971 30.781 68.752 68.752 68.752 17.778 0 33.98-6.748 46.184-17.822l-0.057 0.051 361.555-361.555 841.201 841.201c12.084 10.776 28.109 17.361 45.671 17.361 37.971 0 68.752-30.781 68.752-68.752 0-17.563-6.585-33.587-17.421-45.739l0.060 0.068-889.731-889.731c-12.411-12.453-29.565-20.173-48.522-20.221h-0.009z" />
<glyph unicode="&#xe911;" glyph-name="box" horiz-adv-x="957" d="M478.484-64c-0.063 0-0.138 0-0.214 0-20.493 0-39.845 4.888-56.953 13.561l0.719-0.331-352.799 176.4c-41.392 21.137-69.241 63.465-69.241 112.298 0 0.365 0.002 0.73 0.005 1.095v-0.056 419.39c0.025 48.98 28.063 91.406 68.961 112.125l0.717 0.329 352.799 176.4c16.355 8.148 35.624 12.916 56.007 12.916s39.652-4.768 56.752-13.25l-0.745 0.334 352.799-176.4c41.615-21.049 69.653-63.475 69.678-112.451v-420.275c0-0.063 0-0.137 0-0.212 0-48.928-28.057-91.303-68.959-111.915l-0.719-0.328-352.799-176.4c-16.325-8.294-35.59-13.175-55.989-13.23h-0.018zM478.484 885.471c-8.197-0.028-15.932-1.979-22.785-5.426l0.294 0.134-352.799-176.4c-16.468-8.272-27.689-24.815-28.222-44.030l-0.002-0.070v-419.831c0.446-19.199 11.494-35.717 27.499-43.967l0.284-0.133 352.799-176.4c6.444-3.183 14.030-5.044 22.050-5.044s15.606 1.862 22.348 5.177l-0.298-0.132 352.799 176.4c16.468 8.272 27.689 24.815 28.222 44.030l0.002 0.070v418.508c0.097 1.179 0.152 2.552 0.152 3.937 0 8.373-2.012 16.276-5.578 23.253l0.134-0.289c-4.961 7.93-11.839 14.241-20 18.39l-0.286 0.132-352.799 176.4c-6.583 3.346-14.356 5.307-22.586 5.307-0.432 0-0.863-0.005-1.292-0.016l0.064 0.001zM478.484 455.056c-6.11 0.005-11.877 1.471-16.97 4.067l0.213-0.098-426.887 213.444c-11.899 6.441-19.845 18.83-19.845 33.075 0 20.702 16.783 37.485 37.485 37.485 5.764 0 11.224-1.301 16.103-3.625l-0.227 0.097 410.129-202.86 410.129 202.86c5.107 2.777 11.183 4.41 17.64 4.41 20.702 0 37.485-16.783 37.485-37.485 0-14.938-8.738-27.836-21.382-33.86l-0.227-0.097-426.887-213.444c-4.881-2.498-10.648-3.964-16.756-3.969h-0.002zM478.484-63.559c-20.702 0-37.485 16.783-37.485 37.485v0 518.615c0 20.702 16.783 37.485 37.485 37.485s37.485-16.783 37.485-37.485v0-518.615c0-20.702-16.783-37.485-37.485-37.485v0z" />
<glyph unicode="&#xe912;" glyph-name="facebook" horiz-adv-x="512" d="M343.624-64h-206.175v513.605h-137.45v176.552h137.45v102.721c0 144.452 41.235 231.123 223.356 231.123h151.195v-176.552h-96.214c-72.161 0-75.598-25.681-75.598-70.621v-89.881h171.812l-20.618-176.552h-151.195l3.437-510.395z" />
<glyph unicode="&#xe913;" glyph-name="google" d="M977.591 521.344c4.798-25.845 8.229-51.691 8.229-85.216 0-292.673-192.775-500.128-482.962-500.128-277.839 0-502.857 229.105-502.857 512 0 282.893 225.018 512 502.857 512 135.834 0 249.029-50.291 336.837-134.112l-136.52-133.413c-37.046 36.323-102.216 78.931-200.318 78.931-171.506 0-311.457-144.59-311.457-323.406s139.951-323.408 311.457-323.408c198.946 0 273.723 145.989 285.381 220.731h-285.381v176.024l474.734-0.003z" />
<glyph unicode="&#xe914;" glyph-name="plus" d="M513.371-64c-25.748 0-46.62 20.873-46.62 46.62v0 932.405c0 25.748 20.873 46.62 46.62 46.62s46.62-20.873 46.62-46.62v0-932.405c0-25.748-20.873-46.62-46.62-46.62v0zM977.38 401.654h-932.405c-25.748 0-46.62 20.873-46.62 46.62s20.873 46.62 46.62 46.62h932.405c25.748 0 46.62-20.873 46.62-46.62s-20.873-46.62-46.62-46.62v0z" />
<glyph unicode="&#xe915;" glyph-name="to" horiz-adv-x="531" d="M46.38 960c13.389-0.022 25.449-5.694 33.926-14.759l0.024-0.026 438.075-465.455c7.911-8.327 12.777-19.612 12.777-32.034s-4.866-23.708-12.796-32.054l0.019 0.020-438.075-465.455c-8.53-9.026-20.584-14.644-33.951-14.644-25.78 0-46.678 20.899-46.678 46.678 0 12.413 4.845 23.695 12.748 32.056l-0.021-0.022 407.957 433.694-407.957 433.694c-7.757 8.293-12.52 19.471-12.52 31.76 0 25.68 20.796 46.503 46.466 46.545h0.004z" />
<glyph unicode="&#xe916;" glyph-name="star-fill" horiz-adv-x="1072" d="M536.522 919.129l153.080-309.875 342.572-49.788-248.197-242.253 58.705-339.599-306.16 159.768-306.16-159.768 58.705 341.086-248.197 240.023 342.572 49.788zM230.363-64c-22.49 0.109-40.679 18.366-40.679 40.87 0 2.362 0.2 4.678 0.585 6.93l-0.034-0.242 54.99 319.536-232.592 222.932c-7.72 7.445-12.514 17.88-12.514 29.433 0 20.433 14.994 37.363 34.579 40.389l0.229 0.029 321.022 50.531 144.163 290.554c6.724 13.64 20.471 22.89 36.393 23.036h0.019c15.942-0.146 29.688-9.396 36.305-22.797l0.107-0.239 143.419-290.554 321.022-46.816c19.814-3.055 34.807-19.986 34.807-40.419 0-11.554-4.794-21.988-12.502-29.422l-232.605-222.944 54.99-319.536c0.383-2.101 0.602-4.519 0.602-6.988 0-13.588-6.631-25.627-16.833-33.058l-0.117-0.081c-6.123-3.856-13.569-6.143-21.55-6.143s-15.428 2.288-21.72 6.243l0.17-0.1-286.096 144.163-286.839-148.621c-5.454-3.704-12.057-6.122-19.182-6.679l-0.138-0.009zM129.3 530.485l188.006-181.318c7.708-7.444 12.493-17.87 12.493-29.413 0-2.473-0.22-4.895-0.64-7.246l0.037 0.248-44.586-260.83 232.592 122.612c5.483 2.995 12.010 4.756 18.949 4.756s13.466-1.761 19.16-4.861l-0.211 0.105 233.335-122.612-44.586 259.344c-0.536 2.482-0.843 5.333-0.843 8.256 0 11.66 4.883 22.18 12.715 29.626l0.017 0.016 188.749 183.547-259.344 35.669c-13.444 2.109-24.555 10.52-30.36 22.058l-0.107 0.235-118.154 235.565-116.668-235.565c-5.912-11.773-17.023-20.184-30.236-22.263l-0.231-0.030z" />
</font>
</defs>
</svg>
