<svg width="80" height="80" viewBox="0 0 80 80" fill="none" xmlns="http://www.w3.org/2000/svg">
<g clip-path="url(#clip0)">
<path d="M40.5181 57.4815C37.0367 56.7926 32.0663 55.4 26.7181 52.4222C22.133 49.8667 18.7774 46.9852 16.5033 44.7037C15.5256 41.0815 14.5848 36.1778 14.57 30.3333C14.5552 24.363 15.5107 19.363 16.5033 15.6963C24.4144 19.8667 32.3256 24.037 40.2367 28.2C40.333 37.9704 40.4293 47.7259 40.5181 57.4815Z" fill="#A4BAEA"/>
<path d="M64.6665 43.8074C62.2813 46.2666 59.0146 49.1778 54.7553 51.8963C49.6516 55.1555 44.8516 57.037 41.1924 58.1555C41.1924 48.4148 41.1924 38.6741 41.1924 28.9333C49.022 24.237 56.8442 19.5407 64.6739 14.8444C65.6813 19.2889 66.5257 25.1703 66.2368 32.0666C66.0442 36.5481 65.4146 40.5037 64.6665 43.8074Z" fill="#2C61EC"/>
<path d="M65.1847 14.7408C57.3995 19.5778 49.6143 24.4223 41.8291 29.2593C33.4662 24.3186 25.1032 19.3852 16.7402 14.4445C19.5106 11.7482 23.4217 8.47411 28.5625 5.55559C32.955 3.0667 37.0439 1.51115 40.355 0.518555C44.3847 2.163 48.8884 4.28152 53.6513 7.03707C58.0662 9.59263 61.9106 12.2371 65.1847 14.7408Z" fill="#3F76D8"/>
<path d="M26 41.1556C23.4222 40.9778 21.0592 40.1482 19.1703 38.763C16.9407 37.1259 15.3333 34.7037 14.5333 31.763C14.4222 31.3704 14.6592 30.963 15.0518 30.8519C15.4444 30.7407 15.8518 30.9778 15.9629 31.3704C16.4592 33.1926 17.5777 35.7556 20.0518 37.5704C20.6592 38.0148 21.3111 38.3926 22 38.6963C21.637 36.9778 22.2296 35.2445 23.5851 34.237C25.4222 32.8741 27.637 33.6296 27.8814 33.7259C28.2666 33.8667 28.4592 34.2963 28.3185 34.6741C28.1777 35.0593 27.7481 35.2519 27.3703 35.1111C27.3037 35.0889 25.7037 34.5111 24.474 35.4222C23.4148 36.2074 23.0889 37.7037 23.674 39.0667C23.7037 39.1407 23.7259 39.2148 23.7333 39.2889C24.4889 39.4889 25.2814 39.6148 26.1185 39.6741C26.5259 39.7037 26.837 40.0593 26.8074 40.4667C26.7777 40.8593 26.4518 41.1556 26.0666 41.1556C26.037 41.1556 26.0222 41.1556 26 41.1556ZM21.6814 26.8741C21.8148 26.9778 21.9777 27.0296 22.1407 27.0296C22.3629 27.0296 22.5777 26.9333 22.7259 26.7482C22.9777 26.4296 22.9185 25.963 22.6 25.7111C21.3777 24.7556 20.7629 23.2074 21.0518 21.7852C21.3629 20.2074 22.6074 19.3778 22.9777 19.163C23.3333 18.9556 23.4518 18.5037 23.2444 18.1482C23.037 17.7926 22.5851 17.6741 22.2296 17.8815C21.7185 18.1778 20.0222 19.3111 19.5926 21.4963C19.2 23.4889 20 25.5482 21.6814 26.8741ZM38.2814 32.1407C36.5407 31.5852 34.6518 32.0519 33.3555 33.3704C33.0666 33.6593 33.074 34.1333 33.3629 34.4148C33.6518 34.7037 34.1259 34.6963 34.4074 34.4074C35.2963 33.5037 36.6444 33.1704 37.8296 33.5482C39.6 34.1185 40.0666 35.9852 40.074 36.0074C40.1555 36.3482 40.4592 36.5778 40.7926 36.5778C40.8444 36.5778 40.9037 36.5704 40.9629 36.5556C41.3629 36.4667 41.6074 36.0667 41.5185 35.6667C41.4889 35.5704 40.8666 32.9704 38.2814 32.1407ZM31.837 42.0815C31.4518 42.2148 31.2444 42.637 31.3851 43.0222C31.6592 43.8074 32.0222 45.3333 31.3629 46.7704C30.874 47.837 29.8963 48.7037 28.6074 49.2074C27.237 49.7482 25.6074 49.8444 24.0148 49.4667C23.6148 49.3704 23.2148 49.6222 23.1259 50.0222C23.0296 50.4222 23.2814 50.8222 23.6814 50.9111C24.4296 51.0889 25.1926 51.1704 25.9407 51.1704C27.0666 51.1704 28.1629 50.9704 29.1555 50.5852C30.8 49.9333 32.0666 48.8 32.7185 47.3852C33.5926 45.4741 33.1407 43.5259 32.7926 42.5259C32.6444 42.1482 32.2222 41.9482 31.837 42.0815ZM57 49.7185C56.7037 49.7037 56.2444 49.6667 55.6963 49.5333C56.0666 48.7926 56.3926 47.9704 56.6296 47.0444C57.5111 43.6593 56.7481 40.7778 56.2222 39.3704C56.074 38.9852 55.6518 38.7926 55.2666 38.9407C54.8814 39.0889 54.6888 39.5111 54.837 39.8963C55.3037 41.1482 55.9777 43.6889 55.2 46.6741C54.9703 47.563 54.6444 48.3482 54.2814 49.037C53.6148 48.7185 52.9185 48.2667 52.2814 47.6C50.8074 46.0593 50.4666 44.2815 50.4 43.3556C50.3703 42.9482 50.0148 42.6444 49.6 42.6741C49.1926 42.7037 48.8889 43.0593 48.9185 43.4741C49.0074 44.5926 49.4222 46.7556 51.2074 48.6222C51.9407 49.3852 52.7333 49.9259 53.4963 50.3037C52.9185 51.1259 52.3259 51.7333 51.8963 52.1259C51.5926 52.4 51.5703 52.8667 51.8518 53.1704C52 53.3333 52.2 53.4148 52.4 53.4148C52.5777 53.4148 52.7555 53.3482 52.8963 53.2222C53.5259 52.6519 54.2518 51.8667 54.9259 50.8593C55.7777 51.1037 56.4963 51.1778 56.9333 51.2C56.9481 51.2 56.9555 51.2 56.9629 51.2C57.3555 51.2 57.6888 50.8889 57.7037 50.4889C57.7259 50.0815 57.4074 49.7333 57 49.7185ZM51.9851 21.5259C51.7111 21.8296 51.7333 22.2963 52.037 22.5704C52.674 23.1482 53.5185 24.1407 53.9037 25.6C54.5407 28.0222 53.437 30.0593 53.0814 30.6296C52.8666 30.9778 52.9703 31.437 53.3185 31.6519C53.4444 31.7259 53.5777 31.763 53.7111 31.763C53.9555 31.763 54.2 31.637 54.3407 31.4148C54.7777 30.7185 56.1333 28.2222 55.3407 25.2222C54.8666 23.4148 53.8222 22.1852 53.037 21.4667C52.7259 21.2 52.2592 21.2222 51.9851 21.5259ZM64.6296 29.9852C63.0518 29.1185 61.0296 29.437 59.7037 30.763C59.4148 31.0519 59.4148 31.5185 59.7037 31.8074C59.9926 32.0963 60.4592 32.0963 60.7481 31.8074C61.6074 30.9482 62.9111 30.7259 63.9111 31.2815C64.7259 31.7333 65.2296 32.6296 65.2222 33.6296C65.2222 34.037 65.5481 34.3704 65.9555 34.3778C65.9555 34.3778 65.9555 34.3778 65.9629 34.3778C66.3703 34.3778 66.7037 34.0519 66.7037 33.6445C66.7259 32.0963 65.9259 30.6963 64.6296 29.9852ZM48.4074 23.8296C47.3926 23.2222 46.5185 22.4519 45.8074 21.5556C43.4592 18.6 43.5851 15.0222 43.7481 13.6222C43.7926 13.2148 43.5037 12.8519 43.0963 12.8C42.6888 12.7556 42.3259 13.0444 42.274 13.4519C42.0889 15.037 41.9555 19.0815 44.6444 22.4741C45.4666 23.5111 46.474 24.3926 47.637 25.0963C47.7555 25.1704 47.8888 25.2 48.0222 25.2C48.274 25.2 48.5185 25.0741 48.6592 24.8444C48.8666 24.4963 48.7555 24.0445 48.4074 23.8296ZM35.1703 12.2222C34.9481 12.2889 34.7629 12.4667 34.6888 12.7111C34.2814 14.0148 34.1851 15.2741 34.4074 16.4593H34.4148C34.5111 16.9407 35.037 18.3482 36.5777 21.1185C36.7111 21.363 36.9629 21.4963 37.2222 21.4963C37.3481 21.4963 37.4666 21.4667 37.5851 21.4C37.9407 21.2 38.074 20.7482 37.874 20.3926C36.2074 17.4 35.9037 16.3259 35.8666 16.1852C35.6963 15.2444 35.7777 14.2222 36.1111 13.1556C36.1333 13.0741 36.1481 12.9852 36.1407 12.9111L39.6148 14.763C39.7259 14.8222 39.8444 14.8519 39.9629 14.8519C40.2296 14.8519 40.4814 14.7111 40.6148 14.4593C40.8074 14.0963 40.674 13.6519 40.3111 13.4593L36.4666 11.4074C36.1407 11.1259 34.1259 9.28889 34.474 6.62963C34.7555 4.46667 36.4518 2.67408 38.6888 2.18519C39.0888 2.0963 39.3407 1.70371 39.2518 1.30371C39.1629 0.903708 38.7703 0.651856 38.3703 0.740745C35.5259 1.37037 33.3703 3.65926 33 6.43704C32.6148 9.31852 34.3407 11.4074 35.1703 12.2222ZM27.5777 21.9259C27.7185 22.0593 27.9037 22.1259 28.0889 22.1259C28.2889 22.1259 28.4814 22.0444 28.6296 21.8963C28.9111 21.6 28.8963 21.1333 28.6 20.8519C26.6444 19.0074 25.8222 16.4963 26.4592 14.2889C26.8592 12.9037 27.7555 11.9482 28.4296 11.4C28.7481 11.1407 28.7926 10.6741 28.5333 10.3556C28.274 10.037 27.8074 9.9926 27.4889 10.2519C26.6444 10.9407 25.5333 12.1259 25.0296 13.8815C24.237 16.6222 25.2148 19.7037 27.5777 21.9259ZM52.1481 14.4593C52.2666 14.5333 52.4 14.5704 52.5333 14.5704C52.7851 14.5704 53.0296 14.4444 53.1629 14.2148C53.3777 13.8667 53.2666 13.4074 52.9185 13.2C52.4592 12.9185 51.3629 12.0963 51.037 10.4815C50.6889 8.76297 51.4814 7.30371 51.7333 6.8963C51.9481 6.54815 51.837 6.08889 51.4888 5.87408C51.1407 5.65926 50.6814 5.77037 50.4666 6.11852C50.0518 6.7926 49.1407 8.58519 49.5851 10.7778C50.0222 12.9482 51.5259 14.0741 52.1481 14.4593Z" fill="white"/>
<path d="M65.3184 14.5629L65.2073 14.5851L65.3036 14.4814C61.4073 10.8444 57.0517 7.7333 52.3628 5.237C48.3925 3.12589 44.1776 1.45181 39.8295 0.259222C39.7999 0.251814 39.7702 0.244407 39.7406 0.237C39.7184 0.244407 39.6962 0.251814 39.6739 0.251814C35.0962 1.40737 30.7184 3.22218 26.6591 5.64441C22.6443 8.037 18.9999 10.9926 15.8221 14.4296L15.8813 14.4889L15.7925 14.4666C14.6443 19.5185 14.0813 24.7407 14.111 29.9851C14.1406 34.9629 14.7036 39.9259 15.7925 44.7259L15.8221 44.7185L15.7628 44.7851C19.0888 47.8888 22.7628 50.6148 26.6813 52.8963C31.1628 55.5037 35.9776 57.5259 40.985 58.9111C45.9184 57.3037 50.7702 55.1555 55.1628 52.4074C58.7851 50.1333 62.1999 47.4814 65.3036 44.5259L65.2665 44.4888L65.311 44.4963C66.2591 39.8963 66.7776 35.1629 66.8295 30.437C66.9036 25.0963 66.3925 19.7555 65.3184 14.5629ZM40.185 29.6592V32.3037C39.6073 31.7555 38.8813 31.3555 38.0739 31.1703C36.2517 30.7481 34.3702 31.4814 33.2888 33.0222C33.0517 33.3555 33.1332 33.8222 33.4739 34.0518C33.8073 34.2889 34.2739 34.2074 34.5036 33.874C35.2295 32.837 36.5258 32.3333 37.7406 32.6148C38.9036 32.8814 39.8221 33.8222 40.0739 35.0074C40.0962 35.1037 40.1332 35.1851 40.1776 35.2592L40.148 57.1185C35.711 55.7851 31.4369 53.9333 27.4295 51.6074C26.7776 51.2296 26.1332 50.837 25.4962 50.4296C26.4962 50.3926 27.4739 50.2 28.3554 49.8518C29.9999 49.2 31.2665 48.0666 31.9184 46.6518C32.7925 44.7407 32.3406 42.7926 31.9925 41.7926C31.8591 41.4074 31.4369 41.2 31.0517 41.3407C30.6665 41.474 30.4591 41.8963 30.5999 42.2814C30.8739 43.0666 31.2369 44.5926 30.5776 46.0296C30.0888 47.0963 29.111 47.9629 27.8221 48.4666C26.4517 49.0074 24.8221 49.0963 23.2295 48.7259C23.1332 48.7037 23.0443 48.7037 22.9554 48.7111C20.9332 47.2814 18.9999 45.7185 17.1702 44.0444C16.3999 40.5407 15.9036 36.9555 15.7036 33.3407C16.5702 34.674 17.7554 36.1111 19.3628 37.4074C21.2517 38.9333 23.4147 40.0296 25.7776 40.6592C25.8443 40.674 25.9036 40.6888 25.9702 40.6888C26.2962 40.6888 26.5999 40.4666 26.6888 40.1407C26.7925 39.7481 26.5628 39.3407 26.1628 39.2296C24.9776 38.9111 23.8295 38.4592 22.748 37.874C22.7406 37.837 22.7332 37.8 22.7258 37.7629C22.2591 36.0592 22.985 34.2666 24.385 33.6888C25.8073 33.0963 27.2665 34.0963 27.3332 34.1333C27.6665 34.3629 28.1332 34.2814 28.3628 33.9481C28.5999 33.6148 28.511 33.1481 28.1776 32.9185C27.9554 32.7629 25.9406 31.437 23.8221 32.3185C22.8221 32.7333 22.0073 33.5629 21.5332 34.6444C21.2295 35.3407 21.0888 36.0963 21.111 36.8666C20.8295 36.674 20.5628 36.4666 20.2962 36.2518C17.7554 34.2 16.3702 31.7777 15.6517 30.1037C15.6369 30.0666 15.6221 30.037 15.5999 30V29.9555C15.5702 25.2444 16.0369 20.5555 16.9776 16L21.7628 18.7629C21.348 19.3481 20.9406 20.1407 20.7628 21.1333C20.3332 23.5111 21.5554 25.3703 21.9406 25.8814C22.0888 26.074 22.311 26.1777 22.5332 26.1777C22.6888 26.1777 22.8443 26.1259 22.9776 26.0296C23.3036 25.7851 23.3702 25.3185 23.1258 24.9926C22.8295 24.6 21.8962 23.1851 22.2221 21.3926C22.3628 20.5926 22.711 19.9555 23.0517 19.5037L39.9776 29.274L40.1925 29.4V29.6592H40.185ZM40.985 27.9333L40.785 28.0518L40.5776 27.9333L29.6517 21.6296C29.6295 21.6 29.6147 21.5777 29.585 21.5555C29.2888 21.237 26.6739 18.3777 27.4221 14.9185C27.6443 13.9037 28.1184 12.9555 28.8295 12.1111C29.0888 11.8 29.0517 11.3333 28.7406 11.0666C28.4295 10.8074 27.9628 10.8444 27.6962 11.1555C26.8221 12.1926 26.2443 13.3555 25.9702 14.6074C25.5184 16.6814 26.0221 18.5333 26.6962 19.9333L17.6073 14.6889C20.5184 11.674 23.8073 9.06663 27.4073 6.91848C29.9628 5.39256 32.6443 4.11848 35.4295 3.10367C34.7332 3.99256 34.2443 5.037 34.0295 6.17033C33.5184 8.87404 34.748 10.9777 35.548 12.0222C35.5036 12.0814 35.4739 12.1555 35.4443 12.2296C35.0369 13.5333 34.9406 14.7926 35.1628 15.9777C35.1851 16.0963 35.4295 17.2222 37.3332 20.637C37.4665 20.8814 37.7184 21.0148 37.985 21.0148C38.111 21.0148 38.2295 20.9851 38.348 20.9185C38.7036 20.7185 38.8295 20.2666 38.6369 19.9111C36.9628 16.9037 36.6665 15.837 36.6295 15.7037V15.6963C36.4813 14.8666 36.5258 13.9777 36.7628 13.0518L39.4888 14.4148C39.5925 14.4666 39.711 14.4963 39.8221 14.4963C40.0962 14.4963 40.3554 14.3481 40.4888 14.0889C40.6739 13.7259 40.5258 13.274 40.1554 13.0963L37.1332 11.5851C36.7406 11.1703 34.9851 9.15552 35.4962 6.44441C35.9036 4.29626 37.5702 2.5333 39.748 1.94811C39.8295 1.92589 39.911 1.88885 39.9776 1.84441C43.9628 2.97033 47.8295 4.51848 51.4813 6.45181C51.0221 7.11107 50.348 8.39256 50.4888 10.0889C50.6591 12.0444 51.8073 13.274 52.2962 13.7111C52.4369 13.837 52.6147 13.8963 52.7925 13.8963C52.9999 13.8963 53.1999 13.8148 53.348 13.6518C53.6221 13.3481 53.5925 12.8814 53.2888 12.6074C52.9332 12.2889 52.0888 11.3926 51.9702 9.96293C51.8517 8.57033 52.5184 7.5333 52.7999 7.17033C56.5776 9.28885 60.1184 11.8222 63.3554 14.7111L49.185 23.0889C49.1258 22.9851 49.0369 22.8963 48.9184 22.8296C47.8962 22.237 47.0295 21.4814 46.3406 20.5777C44.2443 17.8296 44.4665 14.5777 44.6591 13.3111C44.7184 12.9037 44.4443 12.5259 44.0369 12.4666C43.6295 12.4074 43.2517 12.6814 43.1925 13.0889C42.9702 14.5407 42.7184 18.274 45.1628 21.474C45.8888 22.4296 46.7776 23.237 47.8221 23.8963L40.985 27.9333ZM64.5851 28.9111C62.8888 28.1259 60.7554 28.8222 59.7258 30.5037C59.511 30.8518 59.6221 31.3111 59.9702 31.5259C60.3184 31.7407 60.7776 31.6296 60.9925 31.2814C61.6369 30.237 62.9406 29.7851 63.9628 30.2592C64.7776 30.637 65.2888 31.5555 65.2295 32.5407C65.2221 32.6518 65.2443 32.7629 65.2813 32.8666C65.111 36.5333 64.6665 40.1851 63.9554 43.7555C62.0665 45.5259 60.0665 47.1851 57.9776 48.7111C57.9184 48.6888 57.8517 48.6814 57.785 48.674C57.711 48.674 57.6221 48.6666 57.5258 48.6592C57.8369 47.9037 58.0962 47.0518 58.2369 46.1037C58.748 42.7703 57.6221 40.1407 56.9036 38.8814C56.7036 38.5259 56.2517 38.4 55.8962 38.6C55.5406 38.8 55.4147 39.2518 55.6147 39.6074C56.2369 40.7037 57.2147 42.9851 56.7702 45.8814C56.6295 46.8222 56.3628 47.6518 56.0369 48.3703C55.111 48.0889 54.0295 47.5555 53.0739 46.5555C51.5999 45.0148 51.2591 43.237 51.1925 42.3111C51.1628 41.9037 50.7999 41.6 50.3925 41.6296C49.985 41.6592 49.6813 42.0148 49.711 42.4296C49.7999 43.5481 50.2147 45.7111 51.9999 47.5777C53.0665 48.6888 54.2591 49.3259 55.3184 49.6888C54.8591 50.4 54.385 50.9333 54.0221 51.2963C53.9776 51.3407 53.948 51.3851 53.911 51.4296C50.0517 53.8074 45.9258 55.7555 41.6295 57.237L41.6665 29.2518L53.2147 22.4222C53.8443 23.0148 54.6073 23.9703 54.9554 25.3333C55.6443 28.0444 54.0962 30.2814 53.7776 30.7037C53.5332 31.0296 53.5999 31.4963 53.9258 31.7407C54.0591 31.8444 54.2147 31.8889 54.3702 31.8889C54.5925 31.8889 54.8147 31.7851 54.9628 31.5926C55.3554 31.074 57.2517 28.3259 56.3925 24.9629C56.0147 23.4814 55.2443 22.3851 54.5332 21.6444L64.0962 15.9851C64.9332 20.3926 65.3628 24.8963 65.3628 29.4C65.1258 29.2148 64.8665 29.0444 64.5851 28.9111Z" fill="#141414"/>
<path d="M14.2383 74.1558C14.2383 75.3803 13.8765 76.4266 13.153 77.2949C12.4406 78.152 11.4833 78.5806 10.2811 78.5806C9.72453 78.5806 9.19579 78.4637 8.69488 78.2299C8.2051 77.9962 7.82664 77.6734 7.55948 77.2615H7.52609V78.3468H5.00484V65.7238H7.74315V70.9166H7.77655C8.41103 70.1708 9.25702 69.7979 10.3145 69.7979C11.4833 69.7979 12.4295 70.2265 13.153 71.0836C13.8765 71.9296 14.2383 72.9537 14.2383 74.1558ZM11.6002 74.1558C11.6002 73.577 11.4221 73.0817 11.0659 72.6698C10.7208 72.2468 10.2421 72.0353 9.62992 72.0353C9.03995 72.0353 8.55574 72.2524 8.17727 72.6865C7.80994 73.1206 7.62627 73.616 7.62627 74.1725C7.62627 74.7402 7.80994 75.2412 8.17727 75.6753C8.55574 76.0983 9.03995 76.3098 9.62992 76.3098C10.2421 76.3098 10.7208 76.0983 11.0659 75.6753C11.4221 75.2523 11.6002 74.7458 11.6002 74.1558ZM21.4878 69.8647L21.3709 72.2691C21.1594 72.2134 20.9257 72.1856 20.6697 72.1856C20.0129 72.1856 19.5231 72.3915 19.2003 72.8034C18.8775 73.2041 18.7161 73.6271 18.7161 74.0724V78.3468H15.9778V70.0317H18.6159V71.2339H18.6493C18.8608 70.7997 19.1669 70.4547 19.5677 70.1986C19.9684 69.9315 20.4136 69.7979 20.9034 69.7979C21.1706 69.7979 21.3654 69.8202 21.4878 69.8647ZM27.2459 75.0074V74.7235H26.8953C25.1922 74.7235 24.3407 75.102 24.3407 75.8589C24.3407 76.1484 24.4575 76.3654 24.6913 76.5101C24.9251 76.6437 25.2033 76.7105 25.5261 76.7105C26.0716 76.7105 26.4946 76.5602 26.7951 76.2597C27.0957 75.948 27.2459 75.5306 27.2459 75.0074ZM23.606 72.6531L22.2201 71.1671C23.2108 70.232 24.4464 69.7645 25.9269 69.7645C27.296 69.7645 28.2756 70.1152 28.8656 70.8164C29.4555 71.5066 29.7505 72.6197 29.7505 74.1558V78.3468H27.2459V77.4619H27.1959C26.9955 77.7958 26.6782 78.063 26.2441 78.2633C25.81 78.4525 25.3425 78.5472 24.8416 78.5472C24.3518 78.5472 23.8898 78.4748 23.4557 78.3301C23.0327 78.1743 22.6543 77.8904 22.3203 77.4786C21.9864 77.0667 21.8194 76.5547 21.8194 75.9424C21.8194 74.0724 23.6004 73.1373 27.1625 73.1373V73.0037C27.1625 72.6142 27.0233 72.3192 26.745 72.1188C26.4667 71.9073 26.105 71.8016 25.6597 71.8016C24.9028 71.8016 24.2182 72.0854 23.606 72.6531ZM34.7664 67.3768C34.7664 67.7998 34.6106 68.156 34.2989 68.4455C33.9983 68.7349 33.631 68.8796 33.1969 68.8796C32.7628 68.8796 32.3899 68.7349 32.0782 68.4455C31.7776 68.1449 31.6274 67.7887 31.6274 67.3768C31.6274 66.9761 31.7776 66.6255 32.0782 66.3249C32.3899 66.0244 32.7628 65.8741 33.1969 65.8741C33.631 65.8741 33.9983 66.0244 34.2989 66.3249C34.6106 66.6143 34.7664 66.965 34.7664 67.3768ZM34.566 78.3468H31.8277V70.0317H34.566V78.3468ZM44.9499 78.3468H42.1949V73.8052C42.1949 72.6364 41.783 72.052 40.9593 72.052C40.4918 72.052 40.13 72.2246 39.874 72.5696C39.618 72.9147 39.49 73.3377 39.49 73.8386V78.3468H36.735V70.0317H39.3898V71.1838H39.4232C39.6235 70.7942 39.9463 70.4658 40.3916 70.1986C40.848 69.9315 41.3545 69.7979 41.911 69.7979C42.9462 69.7979 43.7087 70.1319 44.1985 70.7997C44.6994 71.4565 44.9499 72.2579 44.9499 73.2041V78.3468ZM56.2907 74.1558C56.2907 75.3803 55.9289 76.4266 55.2054 77.2949C54.493 78.152 53.5357 78.5806 52.3335 78.5806C51.7769 78.5806 51.2482 78.4637 50.7473 78.2299C50.2575 77.9962 49.879 77.6734 49.6119 77.2615H49.5785V78.3468H47.0572V65.7238H49.7956V70.9166H49.829C50.4634 70.1708 51.3094 69.7979 52.3669 69.7979C53.5357 69.7979 54.4819 70.2265 55.2054 71.0836C55.9289 71.9296 56.2907 72.9537 56.2907 74.1558ZM53.6526 74.1558C53.6526 73.577 53.4745 73.0817 53.1183 72.6698C52.7732 72.2468 52.2945 72.0353 51.6823 72.0353C51.0924 72.0353 50.6081 72.2524 50.2297 72.6865C49.8623 73.1206 49.6787 73.616 49.6787 74.1725C49.6787 74.7402 49.8623 75.2412 50.2297 75.6753C50.6081 76.0983 51.0924 76.3098 51.6823 76.3098C52.2945 76.3098 52.7732 76.0983 53.1183 75.6753C53.4745 75.2523 53.6526 74.7458 53.6526 74.1558ZM65.5105 70.9667C66.401 71.7682 66.8462 72.8312 66.8462 74.1558C66.8462 75.4805 66.401 76.5547 65.5105 77.3784C64.62 78.2021 63.5235 78.614 62.2212 78.614C60.9299 78.614 59.839 78.2021 58.9485 77.3784C58.058 76.5547 57.6128 75.4805 57.6128 74.1558C57.6128 72.8312 58.058 71.7682 58.9485 70.9667C59.839 70.1653 60.9299 69.7645 62.2212 69.7645C63.5235 69.7645 64.62 70.1653 65.5105 70.9667ZM64.2081 74.1558C64.2081 73.5881 64.03 73.0928 63.6738 72.6698C63.3176 72.2468 62.8334 72.0353 62.2212 72.0353C61.6089 72.0353 61.1303 72.2468 60.7852 72.6698C60.4401 73.0817 60.2676 73.577 60.2676 74.1558C60.2676 74.7347 60.4401 75.2412 60.7852 75.6753C61.1414 76.0983 61.6256 76.3098 62.2379 76.3098C62.8501 76.3098 63.3287 76.0983 63.6738 75.6753C64.03 75.2412 64.2081 74.7347 64.2081 74.1558ZM77.1045 78.3468H73.8819L72.0954 75.7922L70.2587 78.3468H67.0863L70.409 73.9889L67.4035 70.0317H70.5926L72.1455 72.2524L73.715 70.0317H76.8039L73.8152 73.9889L77.1045 78.3468Z" fill="white"/>
</g>
<defs>
<clipPath id="clip0">
<rect width="80" height="80" fill="white"/>
</clipPath>
</defs>
</svg>
