<svg xmlns="http://www.w3.org/2000/svg" viewBox="0 0 13.7 17.7"><title>bar-chart</title><path d="M18,20.85a.85.85,0,0,1-.85-.85V10a.85.85,0,1,1,1.7,0V20A.85.85,0,0,1,18,20.85Z" transform="translate(-5.15 -3.15)" fill="#333"/><path d="M12,20.85a.85.85,0,0,1-.85-.85V4a.85.85,0,0,1,1.7,0V20A.85.85,0,0,1,12,20.85Z" transform="translate(-5.15 -3.15)" fill="#333"/><path d="M6,20.85A.85.85,0,0,1,5.15,20V14a.85.85,0,0,1,1.7,0v6A.85.85,0,0,1,6,20.85Z" transform="translate(-5.15 -3.15)" fill="#333"/></svg>