<svg xmlns="http://www.w3.org/2000/svg" viewBox="0 0 21.7 23.22"><title>box</title><path d="M12,23.62a2.86,2.86,0,0,1-1.28-.3l-8-4a2.85,2.85,0,0,1-1.57-2.57V7.24A2.85,2.85,0,0,1,2.73,4.69l8-4a2.9,2.9,0,0,1,2.54,0h0l8,4a2.85,2.85,0,0,1,1.58,2.55v9.53a2.84,2.84,0,0,1-1.58,2.55l-8,4A2.87,2.87,0,0,1,12,23.62ZM12,2.09a1.16,1.16,0,0,0-.51.12l-8,4a1.15,1.15,0,0,0-.64,1v9.52a1.15,1.15,0,0,0,.63,1l8,4a1.15,1.15,0,0,0,1,0l8-4a1.15,1.15,0,0,0,.64-1V7.24A1.16,1.16,0,0,0,21,6.63a1.14,1.14,0,0,0-.46-.42l-8-4A1.15,1.15,0,0,0,12,2.09Z" transform="translate(-1.15 -0.4)" fill="#333"/><path d="M12,11.85a.85.85,0,0,1-.38-.09L1.94,6.92A.85.85,0,0,1,2.7,5.4L12,10,21.3,5.4a.85.85,0,1,1,.76,1.52l-9.68,4.84A.85.85,0,0,1,12,11.85Z" transform="translate(-1.15 -0.4)" fill="#333"/><path d="M12,23.61a.85.85,0,0,1-.85-.85V11a.85.85,0,0,1,1.7,0V22.76A.85.85,0,0,1,12,23.61Z" transform="translate(-1.15 -0.4)" fill="#333"/></svg>