<svg xmlns="http://www.w3.org/2000/svg" viewBox="0 0 20.7 19.7"><title>check-square</title><path d="M12,14.85a.85.85,0,0,1-.6-.25l-3-3a.85.85,0,0,1,1.2-1.2L12,12.8l9.4-9.4a.85.85,0,0,1,1.2,1.2l-10,10A.85.85,0,0,1,12,14.85Z" transform="translate(-2.15 -2.15)" fill="#333"/><path d="M19,21.85H5A2.85,2.85,0,0,1,2.15,19V5A2.85,2.85,0,0,1,5,2.15H16a.85.85,0,0,1,0,1.7H5A1.15,1.15,0,0,0,3.85,5V19A1.15,1.15,0,0,0,5,20.15H19A1.15,1.15,0,0,0,20.15,19V12a.85.85,0,1,1,1.7,0v7A2.85,2.85,0,0,1,19,21.85Z" transform="translate(-2.15 -2.15)" fill="#333"/></svg>