<svg width="14" height="14" viewBox="0 0 14 14" fill="none" xmlns="http://www.w3.org/2000/svg">
<path d="M13.3655 5.99725C13.4311 6.3506 13.478 6.70396 13.478 7.16231C13.478 11.1637 10.8424 14 6.875 14C3.07642 14 0 10.8677 0 7C0 3.13232 3.07642 0 6.875 0C8.73211 0 10.2797 0.687568 11.4802 1.83356L9.61372 3.65757C9.10723 3.16097 8.21623 2.57844 6.875 2.57844C4.53019 2.57844 2.6168 4.55525 2.6168 7C2.6168 9.44475 4.53019 11.4216 6.875 11.4216C9.59496 11.4216 10.6173 9.42565 10.7767 8.40379H6.875V5.99721L13.3655 5.99725Z" fill="black" fill-opacity="0.5"/>
</svg>
