<svg xmlns="http://www.w3.org/2000/svg" viewBox="0 0 25.7 25.7"><title>info</title><path d="M13,25.85A12.85,12.85,0,1,1,25.85,13,12.86,12.86,0,0,1,13,25.85Zm0-24A11.15,11.15,0,1,0,24.15,13,11.16,11.16,0,0,0,13,1.85Z" transform="translate(-0.15 -0.15)" fill="#333"/><path d="M13,18.65a.85.85,0,0,1-.85-.85V13a.85.85,0,0,1,1.7,0v4.8A.85.85,0,0,1,13,18.65Z" transform="translate(-0.15 -0.15)" fill="#333"/><path d="M13,10.25a.85.85,0,0,1-.85-.85V8.2a.85.85,0,0,1,1.7,0V9.4A.85.85,0,0,1,13,10.25Z" transform="translate(-0.15 -0.15)" fill="#333"/></svg>