<svg xmlns="http://www.w3.org/2000/svg" viewBox="0 0 25.7 25.7"><title>question</title><path d="M13,25.85A12.85,12.85,0,1,1,25.85,13,12.86,12.86,0,0,1,13,25.85Zm0-24A11.15,11.15,0,1,0,24.15,13,11.16,11.16,0,0,0,13,1.85Z" transform="translate(-0.15 -0.15)" fill="#333"/><path d="M12.9,15.05a.85.85,0,0,1-.27-1.66s3-1.07,3-2.79a2.75,2.75,0,0,0-5.34-.92.85.85,0,1,1-1.6-.56,4.45,4.45,0,0,1,8.65,1.48c0,3-4,4.35-4.18,4.41A.86.86,0,0,1,12.9,15.05Z" transform="translate(-0.15 -0.15)" fill="#333"/><path d="M13,19.85a.85.85,0,0,1-.85-.85V17.8a.85.85,0,0,1,1.7,0V19A.85.85,0,0,1,13,19.85Z" transform="translate(-0.15 -0.15)" fill="#333"/></svg>