<svg xmlns="http://www.w3.org/2000/svg" viewBox="0 0 23.7 23.67"><title>settings</title><path d="M12,15.85A3.85,3.85,0,1,1,15.85,12,3.85,3.85,0,0,1,12,15.85Zm0-6A2.15,2.15,0,1,0,14.15,12,2.15,2.15,0,0,0,12,9.85Z" transform="translate(-0.15 -0.18)"/><path d="M12.08,23.85A2.85,2.85,0,0,1,9.23,21a.85.85,0,0,0-.15-.52.8.8,0,0,0-.37-.29.84.84,0,0,0-.52-.08.78.78,0,0,0-.41.21,3,3,0,0,1-1,.67,2.85,2.85,0,0,1-3.11-4.65A.87.87,0,0,0,4,15.89a.8.8,0,0,0-.06-.47.8.8,0,0,0-.73-.49H3a2.85,2.85,0,0,1,0-5.7.85.85,0,0,0,.52-.15.8.8,0,0,0,.29-.37.86.86,0,0,0,.08-.51.79.79,0,0,0-.21-.42A3,3,0,0,1,3,6.8,2.85,2.85,0,0,1,4.53,3.07a2.87,2.87,0,0,1,2.18,0,2.83,2.83,0,0,1,.93.62A.86.86,0,0,0,8.11,4a.8.8,0,0,0,.47-.06l.19-.06a.8.8,0,0,0,.38-.68V3A2.83,2.83,0,0,1,10,1a2.92,2.92,0,0,1,4,0,2.83,2.83,0,0,1,.83,2,.89.89,0,0,0,.13.53.81.81,0,0,0,1.24.14,2.94,2.94,0,0,1,1-.67,2.87,2.87,0,0,1,2.18,0,2.85,2.85,0,0,1,.92,4.65.87.87,0,0,0-.27.47.79.79,0,0,0,.05.46.88.88,0,0,1,.06.2.8.8,0,0,0,.68.38H21a2.85,2.85,0,0,1,0,5.7.89.89,0,0,0-.52.13.78.78,0,0,0-.29.35h0a.8.8,0,0,0,.16.88,2.94,2.94,0,0,1,.67,1,2.85,2.85,0,0,1-1.54,3.73,2.86,2.86,0,0,1-2.18,0,2.83,2.83,0,0,1-.93-.62.87.87,0,0,0-.47-.27.81.81,0,0,0-1,.79V21a2.85,2.85,0,0,1-2.85,2.85ZM8.34,18.41a2.49,2.49,0,0,1,1,.21,2.44,2.44,0,0,1,1.12.87,2.49,2.49,0,0,1,.47,1.4s0,.1,0,.11a1.14,1.14,0,0,0,.34.81,1.19,1.19,0,0,0,1.63,0,1.16,1.16,0,0,0,.34-.81v-.17A2.51,2.51,0,0,1,17.49,19a1.3,1.3,0,0,0,.44.32,1.15,1.15,0,0,0,.88,0,1.13,1.13,0,0,0,.37-.25,1.16,1.16,0,0,0,.25-.37,1.12,1.12,0,0,0,.09-.44,1.11,1.11,0,0,0-.09-.44,1.16,1.16,0,0,0-.25-.38,2.56,2.56,0,0,1-.74-1.37,2.51,2.51,0,0,1,2.46-3,1.22,1.22,0,0,0,.91-.34,1.15,1.15,0,0,0-.81-2h-.17a2.5,2.5,0,0,1-2.29-1.52.88.88,0,0,1-.06-.24A2.5,2.5,0,0,1,19,6.51a1.3,1.3,0,0,0,.32-.44,1.15,1.15,0,0,0,0-.88,1.15,1.15,0,0,0-1.88-.37,2.57,2.57,0,0,1-1.37.74,2.51,2.51,0,0,1-3-2.46,1.22,1.22,0,0,0-.34-.91,1.19,1.19,0,0,0-1.63,0,1.16,1.16,0,0,0-.34.81v.17A2.5,2.5,0,0,1,9.33,5.46a.85.85,0,0,1-.24.06A2.5,2.5,0,0,1,6.51,5a1.3,1.3,0,0,0-.44-.32,1.15,1.15,0,0,0-.88,0,1.16,1.16,0,0,0-.62.62,1.15,1.15,0,0,0,.25,1.25,2.56,2.56,0,0,1,.74,1.37,2.49,2.49,0,0,1-.17,1.45,2.43,2.43,0,0,1-.87,1.12,2.48,2.48,0,0,1-1.4.47H3a1.14,1.14,0,0,0-.81.34,1.15,1.15,0,0,0,.81,2h.17A2.51,2.51,0,0,1,5,17.49a1.3,1.3,0,0,0-.32.44,1.15,1.15,0,0,0,0,.88,1.15,1.15,0,0,0,.25.37,1.17,1.17,0,0,0,.37.25,1.15,1.15,0,0,0,.88,0,1.17,1.17,0,0,0,.38-.25,2.5,2.5,0,0,1,1.82-.78ZM19.4,15h0Z" transform="translate(-0.15 -0.18)"/></svg>