<svg xmlns="http://www.w3.org/2000/svg" viewBox="0 0 19.7 21.7"><title>share</title><path d="M18,8.85A3.85,3.85,0,1,1,21.85,5,3.85,3.85,0,0,1,18,8.85Zm0-6A2.15,2.15,0,1,0,20.15,5,2.15,2.15,0,0,0,18,2.85Z" transform="translate(-2.15 -1.15)" fill="#333"/><path d="M6,15.85A3.85,3.85,0,1,1,9.85,12,3.85,3.85,0,0,1,6,15.85Zm0-6A2.15,2.15,0,1,0,8.15,12,2.15,2.15,0,0,0,6,9.85Z" transform="translate(-2.15 -1.15)" fill="#333"/><path d="M18,22.85A3.85,3.85,0,1,1,21.85,19,3.85,3.85,0,0,1,18,22.85Zm0-6A2.15,2.15,0,1,0,20.15,19,2.15,2.15,0,0,0,18,16.85Z" transform="translate(-2.15 -1.15)" fill="#333"/><path d="M15.42,18.34a.85.85,0,0,1-.43-.12l-6.83-4A.85.85,0,0,1,9,12.78l6.83,4a.85.85,0,0,1-.43,1.58Z" transform="translate(-2.15 -1.15)" fill="#333"/><path d="M8.59,11.34a.85.85,0,0,1-.43-1.58l6.82-4a.85.85,0,1,1,.86,1.47L9,11.22A.84.84,0,0,1,8.59,11.34Z" transform="translate(-2.15 -1.15)" fill="#333"/></svg>