<svg xmlns="http://www.w3.org/2000/svg" viewBox="0 0 14.43 13.78"><title>star-fill</title><path d="M8,1.33l2.06,4.17,4.61.67L11.33,9.43,12.12,14,8,11.85,3.88,14l.79-4.59L1.33,6.18l4.61-.67Z" transform="translate(-0.78 -0.78)" fill="#ffb800"/><path d="M3.88,14.56a.55.55,0,0,1-.54-.64l.74-4.3-3.13-3a.55.55,0,0,1,.3-.94L5.57,5,7.51,1.09A.55.55,0,0,1,8,.78H8a.55.55,0,0,1,.49.31L10.42,5l4.32.63a.55.55,0,0,1,.3.94l-3.13,3,.74,4.3a.55.55,0,0,1-.22.54.55.55,0,0,1-.58,0L8,12.47l-3.86,2A.54.54,0,0,1,3.88,14.56Zm-1.36-8L5.05,9a.55.55,0,0,1,.16.49L4.61,13l3.13-1.65a.54.54,0,0,1,.51,0L11.39,13l-.6-3.49A.55.55,0,0,1,10.95,9l2.54-2.47L10,6.05a.55.55,0,0,1-.41-.3L8,2.58,6.43,5.75a.55.55,0,0,1-.41.3Z" transform="translate(-0.78 -0.78)" fill="#ffb800"/></svg>