<svg xmlns="http://www.w3.org/2000/svg" viewBox="0 0 21.7 20.68"><title>star</title><path d="M18.18,21.87a.85.85,0,0,1-.4-.1l-5.78-3-5.78,3A.85.85,0,0,1,5,20.88l1.1-6.44L1.41,9.88a.85.85,0,0,1,.47-1.45l6.47-.95,2.89-5.86a.89.89,0,0,1,1.52,0l2.89,5.86,6.47.95a.85.85,0,0,1,.47,1.45l-4.68,4.56L19,20.88a.85.85,0,0,1-.84,1ZM3.83,9.86l3.77,3.67a.85.85,0,0,1,.24.75l-.89,5.18L11.6,17a.85.85,0,0,1,.79,0l4.66,2.45-.89-5.18a.85.85,0,0,1,.25-.75l3.77-3.67L15,9.1a.85.85,0,0,1-.64-.46L12,3.92,9.67,8.64A.85.85,0,0,1,9,9.1Z" transform="translate(-1.15 -1.19)" fill="#333"/></svg>