<svg xmlns="http://www.w3.org/2000/svg" viewBox="0 0 17.7 21.7"><title>surface1</title><path d="M16,16.85a11.21,11.21,0,0,1-4.32-1.06A9.74,9.74,0,0,0,8,14.85c-2.52,0-3.41.76-3.42.77a.87.87,0,0,1-.92.15A.85.85,0,0,1,3.15,15V3a.85.85,0,0,1,.25-.6C3.53,2.27,4.74,1.15,8,1.15a11.21,11.21,0,0,1,4.32,1.06A9.74,9.74,0,0,0,16,3.15c2.52,0,3.41-.76,3.42-.77a.87.87,0,0,1,.92-.15.85.85,0,0,1,.51.77V15a.85.85,0,0,1-.25.6C20.47,15.73,19.26,16.85,16,16.85Zm-8-3.7a11.21,11.21,0,0,1,4.32,1.06,9.75,9.75,0,0,0,3.68.94,6.72,6.72,0,0,0,3.15-.6V4.39A9.7,9.7,0,0,1,16,4.85a11.21,11.21,0,0,1-4.32-1.06A9.73,9.73,0,0,0,8,2.85a6.72,6.72,0,0,0-3.15.6V13.61A9.71,9.71,0,0,1,8,13.15Z" transform="translate(-3.15 -1.15)" fill="#333"/><path d="M4,22.85A.85.85,0,0,1,3.15,22V15a.85.85,0,0,1,1.7,0v7A.85.85,0,0,1,4,22.85Z" transform="translate(-3.15 -1.15)" fill="#333"/></svg>