<svg xmlns="http://www.w3.org/2000/svg" viewBox="0 0 23.7 19.7"><title>users</title><path d="M17,21.85a.85.85,0,0,1-.85-.85V19A3.15,3.15,0,0,0,13,15.85H5a3.13,3.13,0,0,0-2.23.92A3.17,3.17,0,0,0,1.85,19v2a.85.85,0,0,1-1.7,0V19A4.85,4.85,0,0,1,5,14.15h8A4.85,4.85,0,0,1,17.85,19v2A.85.85,0,0,1,17,21.85Z" transform="translate(-0.15 -2.15)" fill="#333"/><path d="M9,11.85A4.85,4.85,0,1,1,13.85,7,4.86,4.86,0,0,1,9,11.85Zm0-8A3.15,3.15,0,1,0,12.15,7,3.15,3.15,0,0,0,9,3.85Z" transform="translate(-0.15 -2.15)" fill="#333"/><path d="M23,21.85a.85.85,0,0,1-.85-.85V19a3.15,3.15,0,0,0-2.36-3,.85.85,0,1,1,.43-1.65A4.85,4.85,0,0,1,23.85,19v2A.85.85,0,0,1,23,21.85Z" transform="translate(-0.15 -2.15)" fill="#333"/><path d="M16,11.73a.85.85,0,0,1-.21-1.67,3.15,3.15,0,0,0,0-6.1.85.85,0,1,1,.42-1.65,4.85,4.85,0,0,1,0,9.4Z" transform="translate(-0.15 -2.15)" fill="#333"/></svg>