<svg xmlns="http://www.w3.org/2000/svg" viewBox="0 0 23.7 19.7"><title>user-plus</title><path d="M16,21.85a.85.85,0,0,1-.85-.85V19A3.15,3.15,0,0,0,12,15.85H5a3.13,3.13,0,0,0-2.23.92A3.17,3.17,0,0,0,1.85,19v2a.85.85,0,0,1-1.7,0V19A4.85,4.85,0,0,1,5,14.15h7A4.85,4.85,0,0,1,16.85,19v2A.85.85,0,0,1,16,21.85Z" transform="translate(-0.15 -2.15)" fill="#333"/><path d="M8.5,11.85A4.85,4.85,0,1,1,13.35,7,4.86,4.86,0,0,1,8.5,11.85Zm0-8A3.15,3.15,0,1,0,11.65,7,3.15,3.15,0,0,0,8.5,3.85Z" transform="translate(-0.15 -2.15)" fill="#333"/><path d="M20,14.85a.85.85,0,0,1-.85-.85V8a.85.85,0,1,1,1.7,0v6A.85.85,0,0,1,20,14.85Z" transform="translate(-0.15 -2.15)" fill="#333"/><path d="M23,11.85H17a.85.85,0,0,1,0-1.7h6a.85.85,0,0,1,0,1.7Z" transform="translate(-0.15 -2.15)" fill="#333"/></svg>