<svg xmlns="http://www.w3.org/2000/svg" viewBox="0 0 17.7 19.7"><title>user</title><path d="M20,21.85a.85.85,0,0,1-.85-.85V19A3.15,3.15,0,0,0,16,15.85H8a3.13,3.13,0,0,0-2.23.92A3.17,3.17,0,0,0,4.85,19v2a.85.85,0,0,1-1.7,0V19A4.85,4.85,0,0,1,8,14.15h8A4.85,4.85,0,0,1,20.85,19v2A.85.85,0,0,1,20,21.85Z" transform="translate(-3.15 -2.15)" fill="#333"/><path d="M12,11.85A4.85,4.85,0,1,1,16.85,7,4.86,4.86,0,0,1,12,11.85Zm0-8A3.15,3.15,0,1,0,15.15,7,3.15,3.15,0,0,0,12,3.85Z" transform="translate(-3.15 -2.15)" fill="#333"/></svg>